<svg id="Layer_1" data-name="Layer 1" xmlns="http://www.w3.org/2000/svg" xmlns:xlink="http://www.w3.org/1999/xlink" viewBox="0 0 60 60"><path id="_Path_" data-name="&lt;Path&gt;" d="M32,31.07a1,1,0,0,0-.4.09,1.46,1.46,0,0,0-.39.28V37.1a1.59,1.59,0,0,0,.45.32,1.1,1.1,0,0,0,.46.1.66.66,0,0,0,.52-.19,1,1,0,0,0,.16-.62V32a1,1,0,0,0-.2-.7A.74.74,0,0,0,32,31.07Z"/>
      <path id="_Path_2" data-name="&lt;Path&gt;" d="M27.66,17.74a1,1,0,0,0-.64.2.66.66,0,0,0-.25.53v5.45a.85.85,0,0,0,.23.64.88.88,0,0,0,.65.22,1,1,0,0,0,.69-.23.81.81,0,0,0,.26-.63V18.48a.64.64,0,0,0-.26-.53A1.11,1.11,0,0,0,27.66,17.74Z"/>
      <path id="_Path_3" data-name="&lt;Path&gt;" d="M38.52,31.11a.78.78,0,0,0-.65.24,1.3,1.3,0,0,0-.2.82v.92h1.68v-.92a1.31,1.31,0,0,0-.2-.82A.74.74,0,0,0,38.52,31.11Z"/>
      <path id="_Compound_Path_" data-name="&lt;Compound Path&gt;" d="M56.21,25.31c0-.7-.05-1.41,0-2.11a8.92,8.92,0,0,0-.59-3.41c-.5-1.28-.87-2.6-1.29-3.91a4.48,4.48,0,0,1-.15-.61,1.5,1.5,0,0,1,.37-1.37c.12-.12.22-.26.33-.4a12.74,12.74,0,0,0-.24-1.79A4.72,4.72,0,0,0,54,10a9.29,9.29,0,0,1-.47-.83,3.52,3.52,0,0,0-1.37-1.42,5.33,5.33,0,0,0-.66-.33l-1.18-.58L50,6.24c-.42-.24-.81-.42-1.15-.66a3.19,3.19,0,0,0-.94-.46C46.58,4.75,45.31,4.34,44,4a13.37,13.37,0,0,1-2.57-.94,10.93,10.93,0,0,0-3.33-1,11.75,11.75,0,0,1-2.65-.67A5.63,5.63,0,0,0,33,1a3,3,0,0,1-1-.13,22.46,22.46,0,0,0-4.47-.7L25.91,0a2.71,2.71,0,0,0-.63,0,11.12,11.12,0,0,0-2.85.74,4.72,4.72,0,0,1-.89.34A4.94,4.94,0,0,0,20,1.76a1.83,1.83,0,0,1-.68.28A2.11,2.11,0,0,0,18,2.77a1.16,1.16,0,0,1-.85.37,3.46,3.46,0,0,1-.42,0,2.23,2.23,0,0,0-1.48.46,2.59,2.59,0,0,0-.63.55,1.92,1.92,0,0,1-.46.42A1.41,1.41,0,0,1,13,4.79a3.44,3.44,0,0,0-1.36.07A9.22,9.22,0,0,1,10.2,5a5.68,5.68,0,0,0-1.65.31,11.5,11.5,0,0,1-1.42.4,4.58,4.58,0,0,0-2.24,1.1A6.93,6.93,0,0,0,3,9.36a4.75,4.75,0,0,1-.64,1.08,5,5,0,0,0-.66,1.08c-.22.55-.46,1.1-.73,1.63s-.1,1.19-.32,1.76a1.46,1.46,0,0,0-.06.31A9.66,9.66,0,0,0,.42,17.1a2.65,2.65,0,0,1-.08.84,7,7,0,0,0-.19,1.78c0,.35-.05.7-.08,1.05A20.7,20.7,0,0,0,.06,24c0,.49.08,1,.1,1.47s0,1.12.06,1.69A2.77,2.77,0,0,0,.35,28a4.35,4.35,0,0,1,.22,1.24,8.67,8.67,0,0,0,.67,3,9.47,9.47,0,0,1,.39,1.31,6.75,6.75,0,0,0,.23.81,19.52,19.52,0,0,0,1.9,3.53c.47.65,1,1.29,1.46,1.93a26.53,26.53,0,0,0,2.85,3.52,4.72,4.72,0,0,1,.33.41,20.78,20.78,0,0,0,2.82,2.69c.62.47,1.29.85,1.87,1.38A12.17,12.17,0,0,0,14.68,49c.77.49,1.57.94,2.38,1.36a5,5,0,0,0,1.69.58,6.26,6.26,0,0,1,1.33.3,9.79,9.79,0,0,0,4.48.43,25.29,25.29,0,0,1,3.05-.16,7.1,7.1,0,0,0,1.47-.08,21,21,0,0,0,3.66-1c.75-.31,1.49-.65,2.24-.92a11.2,11.2,0,0,0,2.8-1.45A2.92,2.92,0,0,1,39,47.54,4,4,0,0,0,40.4,47c.36-.22.74-.4,1.12-.59.72-.36,1.43-.74,2.18-1a12.14,12.14,0,0,0,3.09-1.8c.46-.38.94-.74,1.42-1.1A11.53,11.53,0,0,0,50.56,40c.61-.81,1.12-1.71,1.67-2.56.3-.48.6-1,.9-1.44.45-.75.91-1.5,1.34-2.27a3.53,3.53,0,0,0,.31-.78c.25-.84.57-1.66.83-2.49a11.72,11.72,0,0,0,.64-3.73Q56.23,26,56.21,25.31Zm-34.69,3H19.31V38.82H17.16V28.3H14.94V26.52h6.59Zm.06-2H19.18V20.89L16.3,12.71h2.43l1.57,5.42h.15l1.49-5.42H24.4l-2.81,7.93ZM27.8,38.82H25.9v-1a4,4,0,0,1-1.1.84,2.42,2.42,0,0,1-1.11.29,1.23,1.23,0,0,1-1-.41,1.91,1.91,0,0,1-.33-1.22V29.74h1.91v7a.73.73,0,0,0,.12.47.48.48,0,0,0,.39.15,1.11,1.11,0,0,0,.53-.19,2.56,2.56,0,0,0,.59-.48v-6.9h1.9Zm-.13-12.3a3.26,3.26,0,0,1-2.25-.75,2.6,2.6,0,0,1-.85-2V18.55a2.23,2.23,0,0,1,.87-1.85A3.64,3.64,0,0,1,27.76,16a3.25,3.25,0,0,1,2.18.73,2.35,2.35,0,0,1,.85,1.87v5.17a2.53,2.53,0,0,1-.83,2A3.38,3.38,0,0,1,27.66,26.52Zm7,10.42a2.19,2.19,0,0,1-.45,1.48,1.62,1.62,0,0,1-1.29.51,2.35,2.35,0,0,1-1-.2,2.43,2.43,0,0,1-.82-.61v.7H29.23V26.52h1.92v4a2.92,2.92,0,0,1,.82-.63,2,2,0,0,1,.88-.21,1.69,1.69,0,0,1,1.38.58,2.61,2.61,0,0,1,.48,1.7ZM34,26.41A1.38,1.38,0,0,1,32.91,26a2,2,0,0,1-.38-1.34V16.26h2.14v7.67a.79.79,0,0,0,.14.51.54.54,0,0,0,.44.16,1.27,1.27,0,0,0,.6-.21,2.82,2.82,0,0,0,.66-.54V16.26h2.14v10H36.5v-1.1a4.49,4.49,0,0,1-1.23.93A2.77,2.77,0,0,1,34,26.41ZM41.3,34.5H37.67v1.71a1.9,1.9,0,0,0,.19,1,.72.72,0,0,0,.64.28.81.81,0,0,0,.67-.24,1.88,1.88,0,0,0,.18-1v-.41h2v.47a2.85,2.85,0,0,1-.72,2.11,2.92,2.92,0,0,1-2.14.7,2.7,2.7,0,0,1-2-.74,2.83,2.83,0,0,1-.74-2.06V32.18a2.49,2.49,0,0,1,.81-1.92,3,3,0,0,1,2.08-.75,2.75,2.75,0,0,1,2,.69,2.64,2.64,0,0,1,.7,2Z"/>
</svg>
