<svg id="Layer_1" data-name="Layer 1" xmlns="http://www.w3.org/2000/svg" xmlns:xlink="http://www.w3.org/1999/xlink" viewBox="0 0 60 60"><path id="_Compound_Path_" data-name="&lt;Compound Path&gt;" d="M49.28,21a27.61,27.61,0,0,0-1.16-2.51,1.11,1.11,0,0,1-.15-.35c-.12-.5-.37-.95-.53-1.42a2,2,0,0,0-.66-.91c-.57-.47-1.14-.93-1.65-1.45A2.91,2.91,0,0,1,44,12.14l-1.09-1.67c0-.27-.06-.49-.08-.68a3.93,3.93,0,0,0-1.31-1,3.13,3.13,0,0,1-1.45-1.33A1.76,1.76,0,0,0,39,6.51a1.4,1.4,0,0,1-.66-.37,2.25,2.25,0,0,0-1.1-.55l-.94-.22a3.24,3.24,0,0,1-.81-.79,2.51,2.51,0,0,0-.44-.5,7.14,7.14,0,0,1-.8-.81,3.52,3.52,0,0,1-.8-.93A1,1,0,0,0,33.09,2a6.46,6.46,0,0,0-.68-.35,7.08,7.08,0,0,1-1.12-.52A3.25,3.25,0,0,0,29.59.61,3.3,3.3,0,0,1,28.48.35,3.41,3.41,0,0,0,26.24.09a1.59,1.59,0,0,1-.47,0,6,6,0,0,0-2.62.39c-.23.1-.49.13-.73.21a8.46,8.46,0,0,0-1.68.68c-.47.28-.94.53-1.43.76-.8.39-1.62.74-2.43,1.12-.17.08-.34.18-.5.27a26,26,0,0,1-2.44,1.29,6.29,6.29,0,0,0-2,1.23.73.73,0,0,1-.15.11A9.26,9.26,0,0,0,9.74,8,12.41,12.41,0,0,1,8.55,9c-.72.58-1.41,1.19-2.09,1.81a5.78,5.78,0,0,0-.7.78,22.94,22.94,0,0,0-2.42,3.88c-.53,1.05-1,2.13-1.46,3.22A16.24,16.24,0,0,0,.82,22.4c-.15.94-.31,1.89-.4,2.84a19,19,0,0,1-.27,2.08A8.15,8.15,0,0,0,0,29.41a14.74,14.74,0,0,0,.76,3.93,4.55,4.55,0,0,0,.31.69c.38.7.8,1.38,1.13,2.11a10.52,10.52,0,0,0,1.22,2.14,1.56,1.56,0,0,1,.14.25,41.41,41.41,0,0,0,2.49,4.06,27.09,27.09,0,0,0,4.09,4.53A9.12,9.12,0,0,0,12,48.48c.87.47,1.73.95,2.63,1.36a23.18,23.18,0,0,0,3.54,1.42,12.79,12.79,0,0,0,4.73.34,14.22,14.22,0,0,0,4.83-1.42,8.38,8.38,0,0,1,2.45-.76,12,12,0,0,0,2.5-.61c.86-.32,1.72-.67,2.57-1A9.72,9.72,0,0,0,36.79,47l1.94-1.21a17.46,17.46,0,0,0,1.68-1.26,5.69,5.69,0,0,0,1.22-1.34,5.67,5.67,0,0,1,.51-.69,9.45,9.45,0,0,0,1.19-1.84,7.87,7.87,0,0,1,.61-1,12.53,12.53,0,0,0,.89-1.36c.45-.81.86-1.63,1.28-2.45a5.81,5.81,0,0,0,.46-1,7.93,7.93,0,0,1,.66-1.58A9.32,9.32,0,0,0,48,31.13a10.65,10.65,0,0,1,.71-2.56,1.32,1.32,0,0,0,0-.18,11.93,11.93,0,0,0,.34-3.12,5.31,5.31,0,0,1,.2-1.7c.09-.27.13-.56.2-.83a2.43,2.43,0,0,0-.1-1.41A3,3,0,0,0,49.28,21ZM19.64,39.71c-4.54,0-8.32-2-8.32-5.47,0-2.65,1.61-6.08,9.13-6.08a2.9,2.9,0,0,1-.71-3.71c-4.4,0-6.66-2.69-6.66-6.11S15.47,12,20.34,12h7.81l-1.75,1.76h-2a5.35,5.35,0,0,1,2.22,4.67,5.64,5.64,0,0,1-2.31,4.38c-2.41,1.94-1.79,3,.73,5s3.31,3.45,3.31,5.74C28.31,36.28,25.84,39.71,19.64,39.71ZM38.28,18.13H34.76v3.52H33V18.13H29.48V16.37H33V12.84h1.76v3.52h3.52Z"/><path id="_Path_" data-name="&lt;Path&gt;" d="M20.05,29.14c-3.14,0-5.79,2.06-5.79,4.49s2.27,4.55,5.4,4.55c4,0,5.95-1.94,5.95-4.42S23.53,29.14,20.05,29.14Z"/><path id="_Path_2" data-name="&lt;Path&gt;" d="M23.44,18.59c-.36-2.88-2.17-5.24-4.27-5.3s-3.52,2.14-3.15,5,2.37,4.89,4.47,5S23.8,21.46,23.44,18.59Z"/></svg>
