<svg id="Layer_1" data-name="Layer 1" xmlns="http://www.w3.org/2000/svg" xmlns:xlink="http://www.w3.org/1999/xlink" viewBox="0 0 60 60"><path id="_Compound_Path_" data-name="&lt;Compound Path&gt;" d="M56.17,23.19a8.88,8.88,0,0,0-.59-3.41c-.5-1.28-.87-2.6-1.29-3.91a4.41,4.41,0,0,1-.15-.61,1.51,1.51,0,0,1,.37-1.37c.12-.12.22-.26.33-.4a12.48,12.48,0,0,0-.23-1.79A4.78,4.78,0,0,0,54,10a9.25,9.25,0,0,1-.47-.83,3.53,3.53,0,0,0-1.37-1.42,5.18,5.18,0,0,0-.66-.33l-1.18-.58L50,6.24c-.42-.24-.81-.42-1.15-.66a3.21,3.21,0,0,0-.94-.46C46.58,4.75,45.31,4.34,44,4a13.28,13.28,0,0,1-2.57-.94,11,11,0,0,0-3.33-1,11.68,11.68,0,0,1-2.65-.67A5.6,5.6,0,0,0,33,1a3,3,0,0,1-1-.13,22.35,22.35,0,0,0-4.47-.7L25.91,0a2.78,2.78,0,0,0-.63,0,11.12,11.12,0,0,0-2.85.74,4.78,4.78,0,0,1-.89.34A4.93,4.93,0,0,0,20,1.76a1.8,1.8,0,0,1-.68.28A2.12,2.12,0,0,0,18,2.77a1.16,1.16,0,0,1-.85.37,3.47,3.47,0,0,1-.42,0,2.23,2.23,0,0,0-1.48.46,2.59,2.59,0,0,0-.63.55,2,2,0,0,1-.46.42A1.43,1.43,0,0,1,13,4.79a3.43,3.43,0,0,0-1.36.07A9,9,0,0,1,10.2,5a5.68,5.68,0,0,0-1.65.31,11.67,11.67,0,0,1-1.42.4,4.55,4.55,0,0,0-2.24,1.1A6.92,6.92,0,0,0,3,9.36a4.84,4.84,0,0,1-.64,1.08,4.88,4.88,0,0,0-.66,1.08q-.33.83-.73,1.63c-.27.55-.1,1.19-.32,1.76a1.48,1.48,0,0,0-.06.31A9.67,9.67,0,0,0,.42,17.1a2.59,2.59,0,0,1-.08.84,6.93,6.93,0,0,0-.19,1.78c0,.35,0,.7-.08,1A20.48,20.48,0,0,0,.06,24c0,.49.08,1,.11,1.47s0,1.12.06,1.68A2.72,2.72,0,0,0,.36,28a4.36,4.36,0,0,1,.22,1.24,8.7,8.7,0,0,0,.67,3,9.28,9.28,0,0,1,.39,1.31,6.39,6.39,0,0,0,.23.81,19.32,19.32,0,0,0,1.9,3.53c.47.65,1,1.29,1.46,1.93a26.54,26.54,0,0,0,2.85,3.52,5.15,5.15,0,0,1,.33.41,20.67,20.67,0,0,0,2.82,2.69c.62.47,1.29.85,1.86,1.38A12.1,12.1,0,0,0,14.68,49c.77.49,1.57.94,2.38,1.36a5.09,5.09,0,0,0,1.69.58,6.13,6.13,0,0,1,1.33.3,9.74,9.74,0,0,0,4.48.43,25.31,25.31,0,0,1,3.05-.16,6.88,6.88,0,0,0,1.47-.08,20.9,20.9,0,0,0,3.66-1c.75-.3,1.49-.65,2.24-.92a11.16,11.16,0,0,0,2.8-1.45A3,3,0,0,1,39,47.54,4,4,0,0,0,40.4,47c.36-.22.74-.4,1.12-.6.72-.36,1.43-.74,2.18-1a12.16,12.16,0,0,0,3.09-1.8c.46-.38.94-.73,1.42-1.09a11.53,11.53,0,0,0,2.34-2.42c.61-.81,1.12-1.71,1.67-2.56.3-.48.61-1,.9-1.43.45-.75.91-1.5,1.34-2.27a3.58,3.58,0,0,0,.31-.78c.25-.84.57-1.65.83-2.49a11.72,11.72,0,0,0,.64-3.72c0-.49,0-1,0-1.48C56.2,24.6,56.16,23.9,56.17,23.19Zm-13.94-7.7a6.49,6.49,0,0,1-1.68,1.93c-.21.14-.42.3-.62.45a1.63,1.63,0,0,0-.21.25,7.33,7.33,0,0,0,2.2-.08.36.36,0,0,1,.12.5,2,2,0,0,1-.24.42,3.94,3.94,0,0,1-2.52,1.6c-.5.07-1,.21-1.53.33,0,.12-.06.26-.06.39s0,.37,0,.56a14.18,14.18,0,0,1-.41,3.45c-.24,1.14-.53,2.27-.83,3.39a13,13,0,0,1-.6,1.64,20.29,20.29,0,0,1-.9,2,12.87,12.87,0,0,1-3,3.61c-.54.45-1.06.91-1.63,1.3a12.72,12.72,0,0,1-5.32,2.15c-.85.14-1.71.23-2.56.31a9.64,9.64,0,0,1-3.58-.49,10.49,10.49,0,0,1-3.9-2.37.28.28,0,0,1-.08-.24.33.33,0,0,1,.19-.18.8.8,0,0,1,.27,0c.33,0,.65,0,1,0a5.15,5.15,0,0,0,2.88-.93,15.41,15.41,0,0,0,1.33-1,2.49,2.49,0,0,0,.77-1.06,4.55,4.55,0,0,0-.57-.22,5.2,5.2,0,0,1-2.59-1.7,16.55,16.55,0,0,1-1.46-1.87,10.15,10.15,0,0,1-.73-1.5,1.58,1.58,0,0,1-.07-.44.5.5,0,0,1,.61-.09,6.39,6.39,0,0,0,1.73.09c.06,0,.12-.06.22-.12a2.4,2.4,0,0,0-.38-.31,7.72,7.72,0,0,1-2.26-2.34,1,1,0,0,1-.16-.31,8.59,8.59,0,0,0-1.15-2.14c-.18-.28-.33-.56-.48-.85a.28.28,0,0,1,0-.25.39.39,0,0,1,.3-.1,8,8,0,0,1,.84.33,3,3,0,0,0,1.57.2,1.72,1.72,0,0,0,.3-.1,3.26,3.26,0,0,0-.26-.51,4.74,4.74,0,0,1-.65-1.31c-.07-.2-.16-.39-.24-.58a2.62,2.62,0,0,1-.18-.45,16.08,16.08,0,0,1-.57-3.36c0-.69-.11-1.39-.17-2.08,0-.32,0-.64-.07-1a1.7,1.7,0,0,1,.23-.15.72.72,0,0,1,.19,0s.1.06.12.09a8.68,8.68,0,0,0,1.91,2.38c.55.53,1.09,1.08,1.68,1.57a8.49,8.49,0,0,0,1.39.92c.8.43,1.61.84,2.44,1.21a17,17,0,0,0,1.78.6,19.48,19.48,0,0,0,2.34.67l.42,0c.06-.45.11-.87.17-1.27a9.51,9.51,0,0,1,.74-2.39,6.12,6.12,0,0,1,.82-1.12c.08-.11.2-.2.29-.3a5.7,5.7,0,0,1,3.41-1.88,12.72,12.72,0,0,1,3-.24,2.51,2.51,0,0,1,1.31.42,4.72,4.72,0,0,1,1.77,1.93,10.56,10.56,0,0,1,.36,1,4.51,4.51,0,0,0,2.85-.8A.39.39,0,0,1,42.23,15.49Z"/></svg>
