<svg id="Layer_1" data-name="Layer 1" xmlns="http://www.w3.org/2000/svg" xmlns:xlink="http://www.w3.org/1999/xlink" viewBox="0 0 60 60"><path id="_Compound_Path_" data-name="&lt;Compound Path&gt;" d="M51.3,28.82a1.39,1.39,0,0,0-.12-.88,1.82,1.82,0,0,1-.25-.87,6,6,0,0,0-1.27-3.17,1.37,1.37,0,0,1-.17-.29L48,22.21c-.18-.38-.32-.69-.45-1A1.9,1.9,0,0,1,47.39,20a3.61,3.61,0,0,0,.07-.51,1.29,1.29,0,0,0-.19-.78l-.24-.4a1.39,1.39,0,0,1,.1-.24,1.1,1.1,0,0,0,0-1.16c-.15-.3-.32-.6-.47-.91a9.86,9.86,0,0,1-.62-1.29,4.4,4.4,0,0,0-.87-1.61,2.54,2.54,0,0,0-.1-.5c-.13-.32-.11-.68-.23-1a7.12,7.12,0,0,0-.57-1,4.7,4.7,0,0,1-.66-1.14.78.78,0,0,0-.23-.33,2.62,2.62,0,0,1-.54-.73,1.05,1.05,0,0,0-.25-.32,4.7,4.7,0,0,1-1.18-1.65,2.56,2.56,0,0,0-.71-.86,3.89,3.89,0,0,0-1-.64,4,4,0,0,1-1.1-.52,4.34,4.34,0,0,0-1.19-.61,2.51,2.51,0,0,0-1.47-1A5.47,5.47,0,0,0,33.88,2c-.53-.12-1-.36-1.55-.52A8,8,0,0,1,31.09,1a3.64,3.64,0,0,0-.87-.28c-1-.2-1.93-.4-2.91-.56A9.25,9.25,0,0,0,25.39,0c-1,.05-2,.05-3,.09a25.23,25.23,0,0,0-3,.38L17.7.77a6,6,0,0,0-2.5.83,4.2,4.2,0,0,1-1,.43A5.24,5.24,0,0,0,13,2.57a8.16,8.16,0,0,1-1.47.69A15.24,15.24,0,0,0,8.92,4.51,22.52,22.52,0,0,0,5.18,7.66a9.94,9.94,0,0,0-2.46,4.07c-.24.74-.54,1.48-.78,2.22a11.73,11.73,0,0,0-.46,1.67C1.3,16.73,1.17,17.85,1,19a14,14,0,0,1-.24,1.51c-.24,1.1-.45,2.2-.68,3.3A6.56,6.56,0,0,0,0,25.71c.07.81.17,1.62.28,2.43a2.35,2.35,0,0,1,0,1.11,1.39,1.39,0,0,0,0,.8l.2.8a13.19,13.19,0,0,1,.37,2.21,8.33,8.33,0,0,0,.81,3.25c.23.46.5.89.73,1.35A26.41,26.41,0,0,0,6.16,43c.8.92,1.66,1.8,2.55,2.64a33.57,33.57,0,0,0,6.21,4.62,7.82,7.82,0,0,0,2.48.93c.6.11,1.21.22,1.8.34a10.65,10.65,0,0,0,2.24.2c.88,0,1.77,0,2.65,0a8.43,8.43,0,0,0,1.32-.1,25.13,25.13,0,0,0,5-1.19c.13,0,.26-.06.39-.1L32,50c.42-.11.85-.24,1.28-.33a15.65,15.65,0,0,0,2.45-.71l2.75-1.1c.31-.13.62-.28.93-.42a24.75,24.75,0,0,0,2.28-1.35,8.08,8.08,0,0,0,2.05-1.66c.29-.33.6-.65.91-1,.53-.54,1.07-1,1.59-1.59a10.32,10.32,0,0,1,1-1,2.16,2.16,0,0,0,.66-.9l.27-.66A3.5,3.5,0,0,1,49,38.06a1.87,1.87,0,0,0,.4-.58,6.38,6.38,0,0,1,.73-1.23,3.58,3.58,0,0,0,.64-1.38c.18-.87.55-1.68.66-2.57a1,1,0,0,1,.1-.29,4.25,4.25,0,0,0,.35-1.43,8,8,0,0,0-.19-.94A8.06,8.06,0,0,0,51.3,28.82ZM31,16.64l-.57,0a3.48,3.48,0,0,0-1.68.28l-1,.38a1.14,1.14,0,0,0-.72.69c-.1.28-.23.56-.34.85a.42.42,0,0,0,0,.16,5.52,5.52,0,0,0,.16,1.69,24.66,24.66,0,0,1,3.64-.16,1.53,1.53,0,0,1,.16.68c0,.52,0,1,0,1.54,0,.76,0,1.53,0,2.29a1.76,1.76,0,0,1,0,.23.32.32,0,0,1-.32.33,9.82,9.82,0,0,1-1.14.09A10,10,0,0,0,27,26a.43.43,0,0,0-.37.44c0,.09,0,.19,0,.28,0,.65,0,1.3,0,1.95,0,1.18,0,2.37,0,3.55,0,.57,0,1.14-.05,1.71,0,.34,0,.69,0,1,0,1.12-.07,2.25,0,3.37a8.85,8.85,0,0,0,.13.91.53.53,0,0,1-.15.55c-.09-.08-.17-.2-.28-.23a1.85,1.85,0,0,0-.51,0l-1.32.05c-.21,0-.42.07-.62.09a9.27,9.27,0,0,1-2.05,0c-.34,0-.69,0-1.05-.06a2.29,2.29,0,0,1,0-.28c0-.29,0-.57,0-.86,0-1.41-.1-2.82-.13-4.23,0-.91,0-1.83,0-2.75a1.63,1.63,0,0,1,0-.28,18.94,18.94,0,0,0,.08-2.92c0-.74-.07-1.48-.11-2.23a1.35,1.35,0,0,0,0-.19,5.07,5.07,0,0,0-.89,0c-.67,0-1.34,0-2,0-.27,0-.37-.09-.42-.37-.1-.59-.17-1.17-.25-1.76A6.91,6.91,0,0,1,16.87,22c0-.21,0-.42,0-.63s0-.26,0-.37.09.38.12.38c1-.08,2.09.21,3.14.21h.05c.26,0,.35-.54.37-.79s.05-.83,0-1.14a20.82,20.82,0,0,1,.17-3.14,4.09,4.09,0,0,1,.51-1.62,3.54,3.54,0,0,1,.7-.77,8.57,8.57,0,0,1,3-1.7,5.57,5.57,0,0,1,2-.34l2.51,0c.29,0,.57,0,.85-.06l.73,0a1,1,0,0,1,.23.66c0,.42,0,.84,0,1.26a9.57,9.57,0,0,0,.09,2.34C31.46,16.51,31.32,16.66,31,16.64Z"/>
</svg>
