<svg id="Layer_1" data-name="Layer 1" xmlns="http://www.w3.org/2000/svg" xmlns:xlink="http://www.w3.org/1999/xlink" viewBox="0 0 60 60"><path id="_Compound_Path_" data-name="&lt;Compound Path&gt;" d="M53,20a20.4,20.4,0,0,1-.84-3.55c-.08-.53-.28-1-.39-1.51a6.66,6.66,0,0,0-.54-1.46,4.23,4.23,0,0,1-.58-1.66,3.27,3.27,0,0,0-1.17-2.36,5.11,5.11,0,0,1-.72-.75,3.16,3.16,0,0,0-1.28-1,2,2,0,0,1-1.05-1.1,2.1,2.1,0,0,0-.44-.7c-.6-.58-1.29-1.06-1.86-1.66a1.31,1.31,0,0,0-.26-.17c-.29-.2-.57-.4-.86-.58-.59-.37-1.17-.75-1.77-1.1-.42-.24-.87-.44-1.3-.66a2,2,0,0,0-.39-.13L36.78.91a3.63,3.63,0,0,0-.51-.1c-1.52-.13-3-.43-4.57-.45a2.39,2.39,0,0,1-.41,0A13,13,0,0,0,28.38.13c-.94,0-1.88,0-2.82,0A21.63,21.63,0,0,1,23.27,0a5.16,5.16,0,0,0-1.86.09c-.78.19-1.56.35-2.34.55a12.25,12.25,0,0,0-2.9.82,1.9,1.9,0,0,1-.4.12,17.38,17.38,0,0,0-2.41,1,1.59,1.59,0,0,0-.51.35,14.33,14.33,0,0,1-1.47,1.17c-.48.39-1,.81-1.42,1.22C9,6.14,8.11,6.93,7.2,7.74a11.16,11.16,0,0,0-2.41,3.12,5.31,5.31,0,0,1-.4.61,12.59,12.59,0,0,0-1.72,3.09A15.74,15.74,0,0,1,2,16.08a10.84,10.84,0,0,0-.9,2.66C1,19.39.81,20,.64,20.67a22.22,22.22,0,0,0-.61,4A16.31,16.31,0,0,0,.37,29c.28,1.36.58,2.72.86,4.08a18.08,18.08,0,0,0,1.66,4.71c.61,1.17,1.25,2.33,1.88,3.49a8.9,8.9,0,0,0,.55.89c.4.57.83,1.11,1.24,1.68A19.52,19.52,0,0,0,10.38,48a27.25,27.25,0,0,0,3.8,2.56,7.59,7.59,0,0,0,3.61.89c.63,0,1.21-.34,1.85-.22a.37.37,0,0,0,.2,0c.71-.32,1.5-.27,2.19-.55.17,0,.31,0,.45.08a18.5,18.5,0,0,0,2.78.47c.8.08,1.6.1,2.39.21a27.64,27.64,0,0,0,3.86.18A8.61,8.61,0,0,0,34,51.26c.87-.25,1.72-.57,2.57-.86.33-.11.64-.26,1-.36a10.26,10.26,0,0,0,2.54-1.2c.41-.26.8-.55,1.22-.8a41.5,41.5,0,0,0,4.47-3.25,7.3,7.3,0,0,0,1.64-1.59,3,3,0,0,1,.37-.37c.17-.18.33-.36.49-.54.29-.35.59-.69.86-1.05a16.42,16.42,0,0,0,1.48-2.14c.34-.65.68-1.3,1-2a9.91,9.91,0,0,0,1-4.35,2.64,2.64,0,0,1,.14-1,5.26,5.26,0,0,0,.29-2.05c-.05-1.67.16-3.34.21-5a3.3,3.3,0,0,1,.08-.51,9.59,9.59,0,0,0,.06-2.5A6.44,6.44,0,0,0,53,20ZM13.18,17a1.69,1.69,0,0,1,0-1,12,12,0,0,1,.48-1.34,2.82,2.82,0,0,1,1.69-1.69,2,2,0,0,1,1.26,0A3.09,3.09,0,0,1,19.19,15a8,8,0,0,1,.38,1.37,3.23,3.23,0,0,1-.18,1.87,2.52,2.52,0,0,1-1.6,1.45,3.24,3.24,0,0,1-2.62-.12c-.18-.1-.4-.16-.58-.27a2.22,2.22,0,0,1-1.21-1.58A4.45,4.45,0,0,0,13.18,17Zm7,19a15.08,15.08,0,0,1-.12,1.9c-.06.55-.15.65-.69.67-.9,0-1.8,0-2.7,0-.53,0-1.06,0-1.59-.06a3,3,0,0,1-1.23-.26c-.11-1.91-.22-3.73-.31-5.55,0-.45,0-.9,0-1.35,0-1.06-.11-2.11-.11-3.16a26.29,26.29,0,0,1,0-3.41,12.85,12.85,0,0,0,0-1.58,6.14,6.14,0,0,1,0-.64c0-.27.16-.36.43-.34a24.5,24.5,0,0,0,5.15,0c.79-.08.76-.07.86.69a24.22,24.22,0,0,1,.1,3c0,1,0,2,.06,3,0,.82,0,1.64,0,2.46,0,.19,0,.37,0,.55C20.28,33.28,20.17,34.63,20.19,36Zm20-6.48c0,1.51-.07,3-.13,4.52,0,1.27-.12,2.54-.16,3.81a.77.77,0,0,1-.43.78.87.87,0,0,0-.21.18l-4.72-.2c-.29,0-.39-.11-.42-.45A27,27,0,0,1,34,35c.07-1.64.11-3.28.22-4.92a21.68,21.68,0,0,0,.08-2.37,2.68,2.68,0,0,0-1.08-2,1.25,1.25,0,0,0-1.56-.06,2.94,2.94,0,0,0-1.29,1.76,5.76,5.76,0,0,0-.17,1.33c0,2.36,0,4.71-.05,7.07,0,.47,0,1,.06,1.43,0,.18,0,.37,0,.56,0,.49-.21.75-.71.77-.77,0-1.54,0-2.3,0a7.71,7.71,0,0,0-.87,0,6.29,6.29,0,0,1-2-.16,1.06,1.06,0,0,0-.85.07,1.49,1.49,0,0,1-.1-.36,6.39,6.39,0,0,1,0-1.66c-.17-.86,0-1.74-.1-2.6a4.47,4.47,0,0,1,0-.63c0-.87,0-1.75,0-2.62,0-.5-.08-1-.09-1.5a18.47,18.47,0,0,1,.06-2.77,1.57,1.57,0,0,0,0-.24c0-2,0-3.92,0-5.88a1.85,1.85,0,0,1,.23-1.2,18.7,18.7,0,0,1,5.32-.11l.31.06c.69.14.66.13.58.88a13.17,13.17,0,0,0,0,2.49c.23.06.27-.1.33-.2a12.47,12.47,0,0,1,3-3.27,2.88,2.88,0,0,1,2.33-.53,8.48,8.48,0,0,1,2.85,1.07,3.07,3.07,0,0,1,.82,1.06,8.49,8.49,0,0,1,1.28,5.21c.15,1.1-.1,2.07-.06,3.18C40.15,29.08,40.17,29.29,40.17,29.5Z"/></svg>
